<svg xmlns="http://www.w3.org/2000/svg" width="230" height="40" viewBox="0 0 230 40" fill="none">
<path d="M54.9941 6.65332H59.0996V14.6488H59.1863C59.7067 13.7814 60.3717 13.155 61.1812 12.7695C61.9907 12.3648 62.781 12.1624 63.552 12.1624C64.6506 12.1624 65.5469 12.3166 66.2407 12.625C66.9539 12.9141 67.5128 13.3285 67.9176 13.8682C68.3224 14.3886 68.6018 15.0343 68.756 15.8053C68.9295 16.557 69.0162 17.3954 69.0162 18.3206V27.5144H64.9108V19.0723C64.9108 17.8387 64.7181 16.9232 64.3326 16.3257C63.9471 15.7089 63.2628 15.4005 62.2799 15.4005C61.1619 15.4005 60.3524 15.7378 59.8513 16.4124C59.3501 17.0677 59.0996 18.1567 59.0996 19.6794V27.5144H54.9941V6.65332Z" fill="#364152"/>
<path d="M71.6696 12.5672H75.775V27.5144H71.6696V12.5672Z" fill="#364152"/>
<path d="M85.3971 23.9872C85.9754 23.9872 86.4861 23.8716 86.9294 23.6403C87.3728 23.409 87.739 23.1006 88.0281 22.7151C88.3172 22.3296 88.5292 21.896 88.6641 21.4141C88.8183 20.913 88.8954 20.3926 88.8954 19.8529C88.8954 19.2361 88.8376 18.6579 88.722 18.1182C88.6063 17.5592 88.4136 17.0677 88.1437 16.6437C87.8739 16.2197 87.5173 15.8824 87.074 15.6318C86.6307 15.3812 86.0717 15.2559 85.3971 15.2559C84.8189 15.2559 84.3178 15.3716 83.8937 15.6029C83.489 15.8342 83.142 16.1522 82.8529 16.557C82.5831 16.9424 82.3807 17.3954 82.2458 17.9158C82.1301 18.4169 82.0723 18.947 82.0723 19.5059C82.0723 20.0456 82.1205 20.5853 82.2169 21.125C82.3325 21.6454 82.5156 22.1176 82.7662 22.5416C83.036 22.9657 83.383 23.3126 83.807 23.5825C84.231 23.8523 84.7611 23.9872 85.3971 23.9872ZM92.7985 26.5604C92.7985 27.1579 92.7118 27.8421 92.5383 28.6131C92.3841 29.3841 92.0372 30.0972 91.4975 30.7525C90.9578 31.4271 90.1772 31.9957 89.1556 32.4583C88.1341 32.9209 86.7656 33.1522 85.0502 33.1522C84.3178 33.1522 83.5661 33.0558 82.7951 32.8631C82.0434 32.6896 81.3495 32.4101 80.7135 32.0246C80.0967 31.6392 79.5763 31.138 79.1522 30.5212C78.7475 29.9237 78.5162 29.2009 78.4584 28.3529H82.5349C82.7276 29.1239 83.1035 29.6539 83.6624 29.943C84.2214 30.2514 84.8671 30.4056 85.5995 30.4056C86.756 30.4056 87.5944 30.0587 88.1148 29.3648C88.6545 28.6709 88.9147 27.7939 88.8954 26.7338V24.7678H88.8376C88.3943 25.5581 87.7582 26.146 86.9294 26.5314C86.1199 26.8977 85.2622 27.0808 84.3563 27.0808C83.2384 27.0808 82.2747 26.888 81.4652 26.5025C80.6556 26.0978 79.9907 25.5581 79.4703 24.8835C78.9499 24.1896 78.5644 23.3897 78.3138 22.4838C78.0825 21.5587 77.9669 20.5853 77.9669 19.5638C77.9669 18.6 78.1018 17.6749 78.3716 16.7882C78.6607 15.8824 79.0751 15.0921 79.6148 14.4175C80.1545 13.7236 80.8195 13.1743 81.6097 12.7695C82.4192 12.3648 83.3444 12.1624 84.3852 12.1624C85.3682 12.1624 86.2259 12.3455 86.9584 12.7117C87.7101 13.0779 88.3365 13.6947 88.8376 14.5621H88.8954V12.5672H92.7985V26.5604Z" fill="#364152"/>
<path d="M95.5257 6.67158H99.6311V14.6488H99.7178C100.238 13.7814 100.903 13.155 101.713 12.7695C102.522 12.3648 103.313 12.1624 104.083 12.1624C105.182 12.1624 106.078 12.3166 106.772 12.625C107.485 12.9141 108.044 13.3285 108.449 13.8682C108.854 14.3886 109.133 15.0343 109.288 15.8053C109.461 16.557 109.548 17.3954 109.548 18.3206V27.5144H105.442V19.0723C105.442 17.8387 105.25 16.9232 104.864 16.3257C104.479 15.7089 103.794 15.4005 102.811 15.4005C101.693 15.4005 100.884 15.7378 100.383 16.4124C99.8817 17.0677 99.6311 18.1567 99.6311 19.6794V27.5144H95.5257V6.67158Z" fill="#364152"/>
<path d="M119.631 24.8257C120.306 24.8257 120.865 24.6907 121.308 24.4209C121.771 24.1511 122.137 23.8041 122.407 23.3801C122.696 22.9368 122.898 22.426 123.014 21.8478C123.13 21.2695 123.187 20.6817 123.187 20.0842C123.187 19.4867 123.12 18.8988 122.985 18.3206C122.869 17.7423 122.667 17.2316 122.378 16.7882C122.089 16.3257 121.713 15.9594 121.25 15.6896C120.807 15.4005 120.258 15.2559 119.602 15.2559C118.928 15.2559 118.359 15.4005 117.897 15.6896C117.453 15.9594 117.087 16.316 116.798 16.7593C116.528 17.2026 116.335 17.7134 116.22 18.2916C116.104 18.8699 116.046 19.4674 116.046 20.0842C116.046 20.6817 116.104 21.2695 116.22 21.8478C116.355 22.426 116.557 22.9368 116.827 23.3801C117.116 23.8041 117.492 24.1511 117.954 24.4209C118.417 24.6907 118.976 24.8257 119.631 24.8257ZM112.085 12.5672H115.989V14.4753H116.046C116.547 13.6658 117.184 13.0779 117.954 12.7117C118.725 12.3455 119.574 12.1624 120.499 12.1624C121.674 12.1624 122.686 12.3841 123.534 12.8274C124.382 13.2707 125.086 13.8585 125.645 14.591C126.204 15.3234 126.618 16.1811 126.888 17.1641C127.158 18.1278 127.293 19.1397 127.293 20.1998C127.293 21.2021 127.158 22.1658 126.888 23.091C126.618 24.0161 126.204 24.8353 125.645 25.5485C125.105 26.2616 124.421 26.8302 123.592 27.2542C122.783 27.6783 121.829 27.8903 120.73 27.8903C119.805 27.8903 118.947 27.7072 118.157 27.341C117.386 26.9555 116.75 26.3965 116.249 25.6641H116.191V32.7474H112.085V12.5672Z" fill="#364152"/>
<path d="M139.243 18.4362C139.05 17.3954 138.703 16.6051 138.202 16.0655C137.72 15.5258 136.978 15.2559 135.976 15.2559C135.321 15.2559 134.771 15.3716 134.328 15.6029C133.904 15.8149 133.557 16.0847 133.287 16.4124C133.037 16.7401 132.853 17.087 132.738 17.4532C132.641 17.8194 132.584 18.1471 132.564 18.4362H139.243ZM132.564 21.0382C132.622 22.3682 132.959 23.3319 133.576 23.9294C134.193 24.5269 135.08 24.8257 136.236 24.8257C137.065 24.8257 137.778 24.6233 138.376 24.2185C138.973 23.7945 139.339 23.3512 139.474 22.8886H143.088C142.51 24.6811 141.623 25.9629 140.428 26.7338C139.233 27.5048 137.788 27.8903 136.092 27.8903C134.916 27.8903 133.856 27.7072 132.911 27.341C131.967 26.9555 131.167 26.4158 130.512 25.7219C129.856 25.028 129.345 24.1992 128.979 23.2355C128.632 22.2718 128.459 21.2117 128.459 20.0553C128.459 18.9373 128.642 17.8965 129.008 16.9328C129.374 15.9691 129.895 15.1403 130.569 14.4464C131.244 13.7333 132.044 13.1743 132.969 12.7695C133.914 12.3648 134.954 12.1624 136.092 12.1624C137.364 12.1624 138.472 12.413 139.416 12.9141C140.361 13.396 141.132 14.0513 141.729 14.8801C142.346 15.7089 142.789 16.6533 143.059 17.7134C143.329 18.7735 143.425 19.8818 143.348 21.0382H132.564Z" fill="#364152"/>
<path d="M145.205 12.5672H149.108V15.3427H149.166C149.359 14.8801 149.619 14.456 149.946 14.0706C150.274 13.6658 150.65 13.3285 151.074 13.0587C151.498 12.7695 151.951 12.5479 152.433 12.3937C152.915 12.2395 153.416 12.1624 153.936 12.1624C154.206 12.1624 154.505 12.2106 154.833 12.307V16.1233C154.64 16.0847 154.409 16.0558 154.139 16.0365C153.869 15.998 153.609 15.9787 153.358 15.9787C152.606 15.9787 151.97 16.104 151.45 16.3546C150.929 16.6051 150.505 16.9521 150.178 17.3954C149.869 17.8194 149.648 18.3206 149.513 18.8988C149.378 19.477 149.31 20.1034 149.31 20.778V27.5144H145.205V12.5672Z" fill="#364152"/>
<path d="M158.779 15.3138H156.322V12.5672H158.779V11.4107C158.779 10.0808 159.194 8.99176 160.023 8.14369C160.851 7.29562 162.104 6.87158 163.781 6.87158C164.147 6.87158 164.513 6.89086 164.88 6.92941C165.246 6.94868 165.602 6.96795 165.949 6.98723V10.0519C165.468 9.99403 164.966 9.96512 164.446 9.96512C163.887 9.96512 163.482 10.1 163.232 10.3699C163 10.6204 162.885 11.0541 162.885 11.6709V12.5672H165.718V15.3138H162.885V27.5144H158.779V15.3138Z" fill="#364152"/>
<path d="M170.576 20.0553C170.576 20.6528 170.633 21.2406 170.749 21.8189C170.865 22.3778 171.057 22.8886 171.327 23.3512C171.616 23.7945 171.992 24.1511 172.455 24.4209C172.917 24.6907 173.496 24.8257 174.189 24.8257C174.883 24.8257 175.462 24.6907 175.924 24.4209C176.406 24.1511 176.782 23.7945 177.052 23.3512C177.341 22.8886 177.543 22.3778 177.659 21.8189C177.774 21.2406 177.832 20.6528 177.832 20.0553C177.832 19.4577 177.774 18.8699 177.659 18.2916C177.543 17.7134 177.341 17.2026 177.052 16.7593C176.782 16.316 176.406 15.9594 175.924 15.6896C175.462 15.4005 174.883 15.2559 174.189 15.2559C173.496 15.2559 172.917 15.4005 172.455 15.6896C171.992 15.9594 171.616 16.316 171.327 16.7593C171.057 17.2026 170.865 17.7134 170.749 18.2916C170.633 18.8699 170.576 19.4577 170.576 20.0553ZM166.47 20.0553C166.47 18.8602 166.653 17.7809 167.019 16.8172C167.386 15.8342 167.906 15.0054 168.581 14.3308C169.255 13.6369 170.065 13.1068 171.009 12.7406C171.954 12.3551 173.014 12.1624 174.189 12.1624C175.365 12.1624 176.425 12.3551 177.37 12.7406C178.333 13.1068 179.153 13.6369 179.827 14.3308C180.502 15.0054 181.022 15.8342 181.388 16.8172C181.755 17.7809 181.938 18.8602 181.938 20.0553C181.938 21.2503 181.755 22.3296 181.388 23.2934C181.022 24.2571 180.502 25.0859 179.827 25.7797C179.153 26.4543 178.333 26.9748 177.37 27.341C176.425 27.7072 175.365 27.8903 174.189 27.8903C173.014 27.8903 171.954 27.7072 171.009 27.341C170.065 26.9748 169.255 26.4543 168.581 25.7797C167.906 25.0859 167.386 24.2571 167.019 23.2934C166.653 22.3296 166.47 21.2503 166.47 20.0553Z" fill="#364152"/>
<path d="M184.029 12.5672H187.932V15.3427H187.99C188.183 14.8801 188.443 14.456 188.77 14.0706C189.098 13.6658 189.474 13.3285 189.898 13.0587C190.322 12.7695 190.775 12.5479 191.257 12.3937C191.739 12.2395 192.24 12.1624 192.76 12.1624C193.03 12.1624 193.329 12.2106 193.656 12.307V16.1233C193.464 16.0847 193.232 16.0558 192.963 16.0365C192.693 15.998 192.433 15.9787 192.182 15.9787C191.43 15.9787 190.794 16.104 190.274 16.3546C189.753 16.6051 189.329 16.9521 189.002 17.3954C188.693 17.8194 188.472 18.3206 188.337 18.8988C188.202 19.477 188.134 20.1034 188.134 20.778V27.5144H184.029V12.5672Z" fill="#364152"/>
<path d="M194.803 12.5672H198.678V14.591H198.735C199.275 13.82 199.921 13.2225 200.672 12.7985C201.443 12.3744 202.32 12.1624 203.303 12.1624C204.248 12.1624 205.106 12.3455 205.877 12.7117C206.667 13.0779 207.264 13.7236 207.669 14.6488C208.112 13.9935 208.71 13.4152 209.462 12.9141C210.233 12.413 211.138 12.1624 212.179 12.1624C212.97 12.1624 213.702 12.2588 214.377 12.4515C215.051 12.6443 215.629 12.9526 216.111 13.3767C216.593 13.8007 216.969 14.3597 217.239 15.0536C217.509 15.7282 217.644 16.5473 217.644 17.511V27.5144H213.538V19.0434C213.538 18.5422 213.519 18.07 213.48 17.6267C213.442 17.1834 213.336 16.7979 213.162 16.4702C212.989 16.1426 212.729 15.8824 212.382 15.6896C212.054 15.4969 211.601 15.4005 211.023 15.4005C210.445 15.4005 209.972 15.5161 209.606 15.7474C209.259 15.9594 208.98 16.2486 208.768 16.6148C208.575 16.9617 208.44 17.3665 208.363 17.8291C208.305 18.2724 208.276 18.7253 208.276 19.1879V27.5144H204.171V19.1301C204.171 18.6868 204.161 18.2531 204.142 17.8291C204.123 17.3858 204.036 16.981 203.882 16.6148C203.747 16.2486 203.506 15.9594 203.159 15.7474C202.831 15.5161 202.34 15.4005 201.684 15.4005C201.492 15.4005 201.231 15.4487 200.904 15.545C200.595 15.6221 200.287 15.786 199.979 16.0365C199.689 16.2678 199.439 16.6148 199.227 17.0774C199.015 17.5207 198.909 18.1085 198.909 18.841V27.5144H194.803V12.5672Z" fill="#364152"/>
<path d="M220.311 12.5672H224.214V15.3427H224.272C224.464 14.8801 224.724 14.456 225.052 14.0706C225.38 13.6658 225.756 13.3285 226.18 13.0587C226.604 12.7695 227.057 12.5479 227.539 12.3937C228.02 12.2395 228.522 12.1624 229.042 12.1624C229.312 12.1624 229.611 12.2106 229.938 12.307V16.1233C229.745 16.0847 229.514 16.0558 229.244 16.0365C228.974 15.998 228.714 15.9787 228.464 15.9787C227.712 15.9787 227.076 16.104 226.556 16.3546C226.035 16.6051 225.611 16.9521 225.283 17.3954C224.975 17.8194 224.753 18.3206 224.618 18.8988C224.484 19.477 224.416 20.1034 224.416 20.778V27.5144H220.311V12.5672Z" fill="#364152"/>
<g clip-path="url(#clip0_83_54023)">
<path fill-rule="evenodd" clip-rule="evenodd" d="M33.3271 6.6665H33.3274V21.6606H26.6607V13.3332L18.333 13.3332V6.6665L26.6607 6.6665H33.3271Z" fill="#4CA30D"/>
<path fill-rule="evenodd" clip-rule="evenodd" d="M6.66667 0H0V33.3334V40V40.0001H40V33.3334H6.66667V0Z" fill="#364152"/>
</g>
<path fill-rule="evenodd" clip-rule="evenodd" d="M71.667 8.48586H73.9397V10.7581H75.7588V6.66675H75.7584H73.9397H71.667V8.48586Z" fill="#4CA30D"/>
<defs>
<clipPath id="clip0_83_54023">
<rect width="40" height="40" fill="white"/>
</clipPath>
</defs>
</svg>